<svg height="512" viewBox="0 0 54 60" width="512" xmlns="http://www.w3.org/2000/svg"><g id="003---Baby-Changing" fill="none"><g id="Icons" transform="translate(0 1)"><path id="Shape" d="m48 36v19c0 1.6568542-1.3431458 3-3 3h-25c-1.6568542 0-3-1.3431458-3-3v-19z" fill="#6a1b9a"/><path id="Shape" d="m45 36v19c0 1.6568542-1.3431458 3-3 3h-22c-1.6568542 0-3-1.3431458-3-3v-19z" fill="#9d27b0"/><circle id="Oval" cx="18.068" cy="4" fill="#ffe0b2" r="4"/><path id="Shape" d="m52.07 34v1c-.0032948 1.1032019-.8967981 1.9967052-2 2h-35c-1.1045695 0-2-.8954305-2-2v-1c0-1.1045695.8954305-2 2-2h35c1.1032019.0032948 1.9967052.8967981 2 2z" fill="#37474f"/><path id="Shape" d="m49.07 34v1c-.0032948 1.1032019-.8967981 1.9967052-2 2h-32c-1.1045695 0-2-.8954305-2-2v-1c0-1.1045695.8954305-2 2-2h32c1.1032019.0032948 1.9967052.8967981 2 2z" fill="#607d8b"/><circle id="Oval" cx="38.07" cy="29" fill="#dfc49c" r="3"/><path id="Shape" d="m38.07 29c.0006876 1.072484-.5712013 2.0637581-1.5 2.6-.9300833-.5353928-1.503337-1.526827-1.503337-2.6s.5732537-2.0646072 1.503337-2.6c.9287987.5362419 1.5006876 1.527516 1.5 2.6z" fill="#ffe0b2"/><path id="Shape" d="m25.508 17.19c1.1736051 1.1736051 1.1736051 3.0763949 0 4.25s-3.0763949 1.1736051-4.25 0l-4.726-4.734c-.2146117-.2152603-.5154811-.3212218-.8176207-.2879533-.3021397.0332684-.5727457.2021548-.7353793.4589533l-6.328 10c-.10663657.1701079-.15960079.3683753-.152.569l.57 16.291v10.763c0 1.9329966-1.56700338 3.5-3.5 3.5s-3.5-1.5670034-3.5-3.5v-10.51l-1.069-19.902c-.04271785-1.2097072.28072275-2.4041371.928-3.427l6.864-10.839c.70934122-1.12067129 1.8348771-1.91359689 3.1289277-2.20428942 1.2940506-.29069252 2.6505784-.05533195 3.7710723.65428942 1.6058234 1.01513945 3.094236 2.2050646 4.438 3.548z" fill="#02a9f4"/><path id="Shape" d="m8.83 37 .239 6.74v10.76c0 .9282577-.36874894 1.8184964-1.02512627 2.4748737-.65637732.6563774-1.54661602 1.0251263-2.47487373 1.0251263s-1.81849641-.3687489-2.47487373-1.0251263c-.65637733-.6563773-1.02512627-1.546616-1.02512627-2.4748737v-10.51l-1.069-19.902c-.04315604-1.2097576.28031901-2.4043147.928-3.427l1.872-2.961 6.86 6-2.009 3.18c-.10469983.1709448-.1575047.3686157-.152.569z" fill="#607d8b"/><path id="Shape" d="m35.068 29.5c.0021341.6636932-.2605727 1.3008186-.729877 1.770123-.4693044.4693043-1.1064298.7320111-1.770123.729877h-8.441c-.6008416.0002641-1.1699677-.2696118-1.55-.735l-4.239-5.185c-.3377765-.4088233-.4982108-.935657-.4456289-1.4633545.052582-.5276974.3138213-1.0125138.7256289-1.3466455.3567243-.295595.8067472-.4550519 1.27-.45.5968294.0000876 1.162108.2680444 1.54.73l2.519 3.083c.1901137.2325072.4746623.3672547.775.367h4.126l1.75-3.94c.3824917-.8675864 1.3216051-1.3473721 2.248753-1.1488705.9271478.1985016 1.5875006 1.0207318 1.581247 1.9688705.0024784.279107-.0555174.5554403-.17.81l-1.07 2.39c1.1074147.2801868 1.8823364 1.2776925 1.88 2.42z" fill="#ffe0b2"/></g><path id="Shape" d="m2.067 55.5c0 2.4852814 2.01471863 4.5 4.5 4.5s4.5-2.0147186 4.5-4.5c0-13.578.114-7.522-.569-27.086l6.326-10 4.442 4.45c-1.2158507-.1648501-2.4085179.4321195-3.005234 1.5042195-.5967161 1.0720999-.4755799 2.4003144.305234 3.3467805l3.503 4.285h-6c-1.6568542 0-3 1.3431458-3 3v1c0 1.6568542 1.3431458 3 3 3h.931v17c0 2.209139 1.790861 4 4 4h25c2.209139 0 4-1.790861 4-4v-17h1.067c1.6568542 0 3-1.3431458 3-3v-1c0-1.6568542-1.3431458-3-3-3h-8.556c1.0937899-1.8621751.5074118-4.2566123-1.3230666-5.4026581-1.8304785-1.1460457-4.2405496-.6276578-5.4379334 1.1696581-.079-.063-.159-.127-.244-.184.648-1.447.922-1.884.922-2.7.0063647-1.4205524-.9844811-2.6508291-2.3737548-2.9473558-1.3892738-.2965268-2.7960717.4219965-3.3702452 1.7213558l-1.484 3.343h-3.478l-2.329-2.849c1.7404657.4594918 3.5726343-.3067396 4.4678006-1.8684793.8951664-1.5617397.6303346-3.529941-.6458006-4.7995207-5.669-5.661-6.065-6.148-7.815-7.517 2.2298121-.14744987 4.0894475-1.75995691 4.5512231-3.94640762s-.587011-4.4132128-2.5667729-5.4497194c-1.979762-1.0365066-4.4073122-.62978452-5.941123.99540099s-1.7995353 4.07218637-.6503272 5.98872603c-2.3135142-.30162377-4.592325.76408293-5.844 2.733l-6.863 10.839c-.75767663 1.1911994-1.13633621 2.5841506-1.086 3.995 1.28 23.888 1.067 17.191 1.067 30.379zm45.933.5c0 1.1045695-.8954305 2-2 2h-25c-1.1045695 0-2-.8954305-2-2v-17h29zm-8.933-28c1.1045695 0 2 .8954305 2 2s-.8954305 2-2 2-2-.8954305-2-2 .8954305-2 2-2zm12 6c.5522847 0 1 .4477153 1 1v1c0 .5522847-.4477153 1-1 1h-35c-.5522847 0-1-.4477153-1-1v-1c0-.5522847.4477153-1 1-1zm-26.894-5.734c.3794642.4654348.9484823.7350664 1.549.734h4.126c.3952897.0000502.7535124-.2327554.914-.594l1.748-3.936c.1890047-.437788.6608246-.681222 1.1271345-.5815416.46631.0996804.7973672.514741.7908655.9915416 0 .294.037.134-1.153 2.791-.1209773.2700186-.1161678.5797489.013135.8458811.1293029.2661322.3698224.4613406.656865.5331189.7273581.1926288 1.1994553.8943256 1.1038237 1.6406567-.0956315.7463312-.7293966 1.3063276-1.4818237 1.3093433h-8.44c-.3006977.000872-.5856275-.1344237-.775-.368l-4.239-5.183c-.172197-.2049108-.2537896-.4709699-.2260743-.737188.0277154-.2662181.1623619-.509765.3730743-.674812.4265744-.3389357 1.0459712-.2740169 1.393.146zm-5.106-26.266c1.6568542 0 3 1.34314575 3 3s-1.3431458 3-3 3-3-1.34314575-3-3 1.3431458-3 3-3zm-15.292 20.2 6.864-10.84c1.1816399-1.86574035 3.6517401-2.42081905 5.518-1.24 2.827 1.789 3.662 2.807 9.644 8.78.7761079.7827431.7787819 2.043973.006 2.83-.7938624.7602857-2.0449345.762927-2.842.006l-4.726-4.736c-.429503-.4303288-1.0314335-.6419188-1.6357317-.5749907-.6042982.066928-1.1453401.4051061-1.4702683.9189907l-6.326 10c-.21467735.3397698-.3220082.7363364-.308 1.138.709 20.271.568 13.543.568 27.017 0 1.3807119-1.11928813 2.5-2.5 2.5s-2.5-1.1192881-2.5-2.5c0-13.613.258-5.784-1.03-29.506-.20313224-1.3116956.05787485-2.6531589.738-3.793z" fill="#000" transform="translate(-1)"/></g></svg>