<svg height="496pt" viewBox="0 0 496 496" width="496pt" xmlns="http://www.w3.org/2000/svg"><path d="m136 8v32h-24c-4.398438 0-8-3.601562-8-8v-16c0-4.398438 3.601562-8 8-8zm0 0" fill="#fcd770"/><path d="m136 8h32v32h-32zm0 0" fill="#fcd770"/><path d="m200 16v16c0 4.398438-3.601562 8-8 8h-24v-32h24c4.398438 0 8 3.601562 8 8zm0 0" fill="#fcd770"/><path d="m376 40h-80v-16c0-8.800781 7.199219-16 16-16h64c8.800781 0 16 7.199219 16 16v16zm0 0" fill="#b4dd7f"/><path d="m392 248c-26.480469 0-48 21.519531-48 48 0-13.28125-5.359375-25.28125-14.078125-33.921875-8.640625-8.71875-20.640625-14.078125-33.921875-14.078125-5.601562 0-10.960938.960938-16 2.800781v-98.800781h128v98.800781c-5.039062-1.839843-10.398438-2.800781-16-2.800781zm0 0" fill="#b4dd7f"/><path d="m408 147.359375v4.640625h-128v-4.640625c0-7.519531 1.761719-14.800781 5.039062-21.519531l26.960938-53.839844v-32h64v32l26.960938 53.839844c3.277343 6.71875 5.039062 14 5.039062 21.519531zm0 0" fill="#fff"/><path d="m206.160156 104c-5.359375-11.761719-12.800781-22.640625-22.160156-32v-32h-64v32c-9.359375 9.359375-16.800781 20.238281-22.160156 32-.558594 1.121094-1.039063 2.320312-1.519532 3.441406-5.441406 13.117188-8.320312 27.277344-8.320312 41.839844v101.519531c5.039062-1.839843 10.398438-2.800781 16-2.800781 13.28125 0 25.28125 5.359375 33.921875 14.078125 8.71875 8.640625 14.078125 20.640625 14.078125 33.921875 0-26.480469 21.519531-48 48-48 5.601562 0 10.960938.960938 16 2.800781v-101.519531c0-15.761719-3.441406-31.203125-9.839844-45.28125zm0 0" fill="#e6e9ed"/><path d="m88 200v-50.71875c0-14.5625 2.878906-28.722656 8.320312-41.839844.480469-1.121094.960938-2.320312 1.519532-3.441406h108.320312c6.398438 14.078125 9.839844 29.519531 9.839844 45.28125v50.71875zm0 0" fill="#fcd770"/><path d="m407.28125 456-1.601562 7.121094c-3.359376 14.558594-16.320313 24.878906-31.199219 24.878906h-252.960938c-14.878906 0-27.839843-10.320312-31.199219-24.878906l-1.601562-7.121094zm0 0" fill="#cf9e76"/><path d="m414.558594 424-7.277344 32h-318.5625l-7.277344-32zm0 0" fill="#ccd1d9"/><g fill="#dfb28b"><path d="m340.398438 328h96l-3.679688 16-18.160156 80h-96zm0 0"/><path d="m340.398438 328-21.839844 96h-70.558594v-96zm0 0"/><path d="m248 328v96h-71.761719l-21.757812-96zm0 0"/><path d="m154.480469 328 21.757812 96h-94.796875l-18.160156-80-3.679688-16zm0 0"/><path d="m440 296h-96c0-26.480469 21.519531-48 48-48 5.601562 0 10.960938.960938 16 2.800781 6.800781 2.320313 12.960938 6.238281 17.921875 11.277344.636719.640625 1.199219 1.28125 1.757813 1.921875 7.679687 8.480469 12.320312 19.679688 12.320312 32zm0 0"/><path d="m329.921875 262.078125c8.71875 8.640625 14.078125 20.640625 14.078125 33.921875h-96c0-20.878906 13.359375-38.71875 32-45.199219 5.039062-1.839843 10.398438-2.800781 16-2.800781 13.28125 0 25.28125 5.359375 33.921875 14.078125zm0 0"/><path d="m248 296h-96c0-26.480469 21.519531-48 48-48 5.601562 0 10.960938.960938 16 2.800781 6.800781 2.320313 12.960938 6.238281 17.921875 11.277344 8.71875 8.640625 14.078125 20.640625 14.078125 33.921875zm0 0"/><path d="m137.921875 262.078125c8.71875 8.640625 14.078125 20.640625 14.078125 33.921875h-96c0-12.320312 4.640625-23.519531 12.320312-32 5.28125-5.921875 12.078126-10.558594 19.679688-13.199219 5.039062-1.839843 10.398438-2.800781 16-2.800781 13.28125 0 25.28125 5.359375 33.921875 14.078125zm0 0"/></g><path d="m56 296h384v10.640625c0 3.519531-.398438 7.121094-1.199219 10.640625l-2.402343 10.71875h-376.796876l-2.402343-10.71875c-.800781-3.519531-1.199219-7.121094-1.199219-10.640625zm0 0" fill="#ccd1d9"/><path d="m456 256h-24.886719c-4.394531-4.296875-9.503906-7.839844-15.113281-10.519531v-98.144531c0-8.65625-2.046875-17.3125-5.910156-25.046876l-26.089844-52.175781v-22.113281h16v-24c0-13.230469-10.769531-24-24-24h-64c-13.230469 0-24 10.769531-24 24v24h16v22.113281l-26.089844 52.167969c-3.863281 7.734375-5.910156 16.398438-5.910156 25.054688v98.152343c-9.992188 4.769531-18.335938 12.382813-24 21.824219-5.664062-9.441406-14.007812-17.054688-24-21.824219v-96.230469c0-30.203124-11.335938-58.65625-32-80.496093v-20.761719c8.824219 0 16-7.175781 16-16v-16c0-8.824219-7.175781-16-16-16h-80c-8.824219 0-16 7.175781-16 16v16c0 8.824219 7.175781 16 16 16v20.753906c-20.664062 21.839844-32 50.292969-32 80.492188v96.226562c-5.609375 2.6875-10.71875 6.230469-15.113281 10.527344h-24.886719c-22.054688 0-40 17.945312-40 40v16c0 22.054688 17.945312 40 40 40h16.878906l25.648438 112.863281c4.175781 18.335938 20.214844 31.136719 39.015625 31.136719h252.90625c18.808593 0 34.839843-12.800781 39.015625-31.136719l25.648437-112.863281h16.886719c22.054688 0 40-17.945312 40-40v-16c0-22.054688-17.945312-40-40-40zm-360.886719 192-3.640625-16h313.046875l-3.632812 16zm-30.121093-132.527344c-.65625-2.886718-.992188-5.871094-.992188-8.855468v-2.617188h368v2.617188c0 2.992187-.335938 5.96875-1 8.863281l-1.023438 4.519531h-363.953124zm191.007812 100.527344v-80h74.34375l-18.183594 80zm-73.351562 0-18.175782-80h75.527344v80zm-34.59375-80 18.175781 80h-78.390625l-18.183594-80zm180.519531 80 18.1875-80h79.582031l-18.183594 80zm102.617187-128h-78.382812c3.71875-18.230469 19.871094-32 39.191406-32s35.472656 13.769531 39.191406 32zm-127.191406-264c0-4.40625 3.585938-8 8-8h64c4.414062 0 8 3.59375 8 8v8h-80zm16 49.886719v-25.886719h48v25.886719l27.777344 55.554687c2.261718 4.527344 3.597656 9.511719 4.03125 14.558594h-111.617188c.425782-5.046875 1.761719-10.023438 4.03125-14.558594zm-32 86.113281h112v80.640625c-2.625-.375-5.28125-.640625-8-.640625-20.382812 0-38.199219 10.984375-48 27.304688-9.800781-16.320313-27.617188-27.304688-48-27.304688-2.71875 0-5.375.265625-8 .640625zm8 96c19.3125 0 35.472656 13.769531 39.191406 32h-78.382812c3.71875-18.230469 19.878906-32 39.191406-32zm-56.808594 32h-78.382812c3.71875-18.230469 19.871094-32 39.191406-32s35.472656 13.769531 39.191406 32zm-95.191406-256v-16h16v16zm48.007812 0h-16.007812v-16h16zm-80.007812-16h16v16h-16zm13.65625 61.65625 2.34375-2.34375v-27.3125h48v27.3125l2.34375 2.34375c5.601562 5.601562 10.359375 11.785156 14.441406 18.34375h-81.570312c4.082031-6.558594 8.839844-12.742188 14.441406-18.34375zm-22.542969 34.34375h97.773438c4.632812 11.710938 7.113281 24.28125 7.113281 37.257812v42.742188h-112v-42.742188c0-12.976562 2.480469-25.546874 7.113281-37.257812zm-7.113281 96h112v32.640625c-2.625-.375-5.28125-.640625-8-.640625-20.382812 0-38.199219 10.984375-48 27.304688-9.800781-16.320313-27.617188-27.304688-48-27.304688-2.71875 0-5.375.265625-8 .640625zm8 48c19.3125 0 35.472656 13.769531 39.191406 32h-78.382812c3.71875-18.230469 19.878906-32 39.191406-32zm-64 80c-13.230469 0-24-10.769531-24-24v-16c0-13.230469 10.769531-24 24-24h13.480469c-3.472657 7.289062-5.480469 15.398438-5.480469 24v10.617188c0 4.183593.472656 8.359374 1.390625 12.414062l3.855469 16.96875zm334.457031 144h-252.914062c-10.328125 0-19.199219-6.472656-22.550781-16h298.015624c-3.359374 9.527344-12.222656 16-22.550781 16zm105.542969-168c0 13.230469-10.769531 24-24 24h-13.257812l3.859374-16.96875c.925782-4.054688 1.398438-8.230469 1.398438-12.414062v-10.617188c0-8.601562-2.007812-16.710938-5.480469-24h13.480469c13.230469 0 24 10.769531 24 24zm0 0"/><path d="m304 176h80v16h-80zm0 0"/><path d="m304 208h80v16h-80zm0 0"/><path d="m112 128h80v16h-80zm0 0"/><path d="m112 160h80v16h-80zm0 0"/></svg>