<svg id="Layer_1" enable-background="new 0 0 256 256" height="512" viewBox="0 0 256 256" width="512" xmlns="http://www.w3.org/2000/svg"><path d="m192.633 67.71c-16.377-16.011-62.232 4.332-78.243 20.708-16.011 16.377-15.715 42.632.661 58.644 16.377 16.011 42.632 15.715 58.644-.662 5.165-5.283 10.672-13.682 15.214-23.173l3.538-8.132c7.11-18.109 9.809-37.976.186-47.385z" fill="#87796f"/><path d="m193.682 66.638c-10.394-10.163-30.009-5.706-40.779-2.144-15.224 5.036-31.132 14.229-39.585 22.875-8.024 8.207-12.372 19.048-12.242 30.524.129 11.478 4.72 22.217 12.927 30.24 8.088 7.908 18.734 12.246 30.026 12.246.166 0 .332-.001.498-.003 11.477-.13 22.217-4.721 30.24-12.928 5.243-5.362 10.891-13.954 15.517-23.623l3.539-8.132c.008-.017.015-.033.022-.051 12.506-31.859 4.051-44.883-.163-49.004zm-2.622 47.884-3.506 8.058c-4.468 9.335-9.91 17.635-14.933 22.771-15.408 15.76-40.764 16.044-56.522.638-7.634-7.464-11.905-17.453-12.025-28.129s3.924-20.76 11.388-28.394c8.147-8.334 23.573-17.226 38.382-22.124 8.827-2.92 15.777-3.997 21.228-3.997 9.107 0 14.025 3.006 16.512 5.437 7.886 7.71 7.689 24.807-.524 45.74z" fill="#3a312a"/><path d="m107.794 83.802c-44.175 0-80.006 29.447-80.176 65.818h160.352c-.171-36.371-36.002-65.818-80.176-65.818z" fill="#fce8cb"/><path d="m107.793 82.302c-44.863 0-81.502 30.195-81.676 67.312-.002.398.155.782.437 1.065.281.282.664.441 1.063.441h40.736c.829 0 1.5-.672 1.5-1.5s-.671-1.5-1.5-1.5h-39.207c1.143-34.774 36.046-62.818 78.647-62.818 42.602 0 77.505 28.044 78.648 62.818h-104.295c-.829 0-1.5.672-1.5 1.5s.671 1.5 1.5 1.5h105.824c.399 0 .781-.159 1.064-.441.281-.283.438-.667.436-1.065-.174-37.117-36.814-67.312-81.677-67.312z" fill="#3a312a"/><path d="m119.818 109.944-.854-2.523c-.892-2.633-4.299-3.313-6.133-1.225l-1.758 2.001c-1.834 2.088-.72 5.379 2.006 5.924l2.612.521c2.726.546 5.019-2.065 4.127-4.698z" fill="#f16c7a"/><path d="m121.239 109.463-.854-2.522c-.593-1.75-2.028-3.011-3.84-3.372-1.813-.365-3.621.251-4.841 1.639l-1.757 2.001c-1.22 1.389-1.594 3.263-1.001 5.013s2.028 3.011 3.84 3.372l2.612.521c.343.068.686.103 1.024.103 1.452 0 2.829-.616 3.817-1.742 1.218-1.389 1.592-3.263 1-5.013zm-3.255 3.032c-.503.573-1.254.827-2 .678l-2.612-.521c-.748-.149-1.341-.67-1.585-1.393-.245-.724-.09-1.497.413-2.07l1.757-2.001c.408-.466.977-.72 1.576-.72.14 0 .282.014.423.042.749.149 1.341.67 1.586 1.394l.854 2.522c.246.722.092 1.496-.412 2.069z" fill="#3a312a"/><path d="m229.872 89.075c-7.854-3.549-17.098-.059-20.646 7.795-4.267 9.445-12.106 17.26-21.506 21.443-7.532 3.352-16.02 4.415-24.122 3.148l-8.68-2.332c-4.803-1.871-9.323-4.639-13.157-8.083-6.411-5.76-16.277-5.232-22.037 1.179s-5.232 16.277 1.179 22.038c7.386 6.635 16.249 11.833 25.631 15.031 12.526 4.27 26.214 4.999 39.187 2.272 5.039-1.059 9.974-2.64 14.687-4.738 16.541-7.36 29.773-20.538 37.259-37.106 3.549-7.855.058-17.098-7.795-20.647z" fill="#f16c7a"/><path d="m239.448 97.254c-1.613-4.274-4.795-7.664-8.959-9.546-4.163-1.882-8.812-2.03-13.085-.415-4.274 1.614-7.664 4.796-9.546 8.96-4.118 9.113-11.681 16.654-20.749 20.689-7.134 3.175-15.37 4.257-23.2 3.049l-8.523-2.289c-4.613-1.81-8.977-4.496-12.623-7.773-7.017-6.302-17.853-5.722-24.155 1.293-3.054 3.398-4.601 7.783-4.356 12.346.244 4.563 2.25 8.757 5.648 11.811 7.536 6.77 16.579 12.072 26.149 15.335 7.751 2.642 15.906 3.973 24.132 3.973 5.283 0 10.597-.55 15.848-1.653 5.184-1.089 10.226-2.715 14.987-4.835 16.878-7.509 30.379-20.954 38.018-37.858 1.881-4.166 2.029-8.813.414-13.087zm-3.148 11.85c-7.335 16.233-20.298 29.144-36.503 36.354-4.568 2.033-9.408 3.594-14.385 4.64-12.9 2.71-26.176 1.94-38.394-2.224-9.191-3.133-17.876-8.226-25.113-14.728-2.802-2.518-4.457-5.977-4.658-9.738-.201-3.763 1.074-7.378 3.592-10.18 2.782-3.097 6.633-4.672 10.5-4.672 3.359 0 6.729 1.189 9.419 3.604 3.932 3.534 8.64 6.427 13.614 8.366.051.02.103.037.155.051l8.681 2.332c.053.015.104.025.158.034 8.416 1.313 17.282.157 24.962-3.261 9.731-4.33 17.847-12.42 22.264-22.195 1.551-3.434 4.347-6.057 7.871-7.388 3.524-1.329 7.355-1.209 10.79.343 3.434 1.551 6.058 4.347 7.389 7.871 1.331 3.525 1.21 7.357-.342 10.791z" fill="#3a312a"/><path d="m16.56 149.62c0 19.436 15.756 35.192 35.192 35.192h152.497c19.436 0 35.192-15.756 35.192-35.192z" fill="#87796f"/><path d="m239.44 148.12h-157.294c-.829 0-1.5.672-1.5 1.5s.671 1.5 1.5 1.5h155.761c-.787 17.885-15.583 32.191-33.659 32.191h-152.497c-18.076 0-32.872-14.307-33.659-32.191h50.262c.829 0 1.5-.672 1.5-1.5s-.671-1.5-1.5-1.5h-51.794c-.829 0-1.5.672-1.5 1.5 0 20.231 16.46 36.691 36.692 36.691h152.497c20.232 0 36.692-16.46 36.692-36.691-.001-.828-.672-1.5-1.501-1.5z" fill="#3a312a"/><path d="m80.807 184.811h94.387v11.73h-94.387z" fill="#87796f"/><path d="m175.193 183.312h-94.386c-.829 0-1.5.672-1.5 1.5v11.73c0 .828.671 1.5 1.5 1.5h55.587c.828 0 1.5-.672 1.5-1.5s-.672-1.5-1.5-1.5h-54.087v-8.73h91.387v8.73h-23.587c-.828 0-1.5.672-1.5 1.5s.672 1.5 1.5 1.5h25.087c.828 0 1.5-.672 1.5-1.5v-11.73c-.001-.829-.673-1.5-1.501-1.5z" fill="#3a312a"/><path d="m226.04 47.546c-2.942-2.876-7.019-3.873-10.751-3.011.778-3.75-.31-7.803-3.252-10.68-4.589-4.486-11.951-4.403-16.443.186-4.487 4.594-4.404 11.956.185 16.443.109.107.224.208.34.315l-11.946 12.212c3.29.925 6.161 2.453 8.458 4.699s3.89 5.081 4.889 8.35l3.687-3.773 6.147-6.29 2.105-2.155c.11.113.213.226.323.333 4.589 4.487 11.951 4.403 16.443-.186 4.488-4.594 4.404-11.956-.185-16.443z" fill="#fce8cb"/><path d="m227.089 46.475c-2.708-2.649-6.347-3.958-10.067-3.711.175-3.711-1.226-7.331-3.935-9.98-5.173-5.057-13.5-4.963-18.565.21-4.813 4.929-4.96 12.708-.503 17.81l-10.917 11.16c-.37.379-.514.925-.377 1.437s.533.913 1.043 1.057c3.155.887 5.785 2.343 7.815 4.327 2.03 1.985 3.545 4.581 4.503 7.716.155.507.565.894 1.08 1.019.117.029.236.043.354.043.398 0 .787-.159 1.073-.451l10.911-11.166c5.197 4.34 12.975 4.018 17.794-.906 5.058-5.182 4.964-13.509-.209-18.565zm-1.936 16.465c-3.906 3.989-10.331 4.063-14.319.164l-.3-.309c-.281-.289-.669-.453-1.073-.453h-.001c-.403 0-.79.163-1.072.451l-2.106 2.154c-.001 0-.001 0-.001 0l-8.161 8.353c-1.09-2.607-2.577-4.842-4.439-6.662-1.863-1.821-4.13-3.258-6.761-4.289l10.273-10.502c.283-.29.438-.682.428-1.087-.011-.405-.185-.789-.482-1.063l-.309-.285c-3.991-3.901-4.064-10.327-.162-14.322 3.905-3.989 10.33-4.063 14.322-.162 2.479 2.424 3.537 5.902 2.832 9.303-.104.501.055 1.02.42 1.377s.89.504 1.386.39c3.383-.785 6.885.197 9.364 2.622 3.99 3.901 4.063 10.325.161 14.32z" fill="#3a312a"/><path d="m47.851 26.219c-.974 11.564-13.024 13.39-13.024 13.39 10.347.487 12.925 14.059 12.925 14.059.221-9.677 13.321-14.202 13.321-14.202-9.813-.588-13.222-13.247-13.222-13.247z" fill="#d7e057"/><path d="m61.163 37.969c-8.605-.516-11.833-12.025-11.864-12.142-.191-.703-.859-1.17-1.583-1.102-.725.066-1.298.642-1.359 1.367-.86 10.216-11.313 11.964-11.754 12.032-.763.116-1.313.791-1.273 1.561.04.771.657 1.385 1.427 1.421 9.028.426 11.499 12.719 11.523 12.844.137.711.759 1.217 1.472 1.217.042 0 .085-.002.127-.005.764-.064 1.357-.693 1.374-1.46.195-8.509 12.192-12.777 12.313-12.819.675-.234 1.092-.914.994-1.622-.1-.708-.683-1.249-1.397-1.292zm-13.566 10.345c-1.357-3.131-3.709-6.908-7.587-8.877 2.931-1.405 6.409-3.913 8.202-8.273 1.551 3.071 4.2 6.881 8.334 8.723-3.007 1.64-6.923 4.405-8.949 8.427z" fill="#3a312a"/><path d="m26.153 43.2c-.689 8.179-9.213 9.47-9.213 9.47 7.318.344 9.142 9.944 9.142 9.944.156-6.844 9.422-10.045 9.422-10.045-6.941-.415-9.351-9.369-9.351-9.369z" fill="#d7e057"/><path d="m35.594 51.072c-5.766-.346-7.972-8.187-7.994-8.266-.19-.702-.856-1.168-1.582-1.102-.726.065-1.299.643-1.36 1.368-.579 6.871-7.647 8.066-7.942 8.113-.763.116-1.313.791-1.273 1.561.04.771.657 1.385 1.427 1.421 6.035.284 7.724 8.645 7.739 8.727.135.713.759 1.22 1.473 1.22.041 0 .083-.002.125-.005.765-.063 1.358-.693 1.376-1.461.13-5.709 8.331-8.633 8.412-8.661.676-.233 1.094-.913.996-1.622s-.682-1.25-1.397-1.293zm-9.584 6.794c-.924-1.885-2.34-3.947-4.447-5.279 1.856-1.041 3.697-2.63 4.871-4.917 1.057 1.874 2.654 3.955 4.941 5.225-1.851 1.1-3.989 2.739-5.365 4.971z" fill="#3a312a"/><path d="m26.153 16.542c-.689 8.179-9.213 9.471-9.213 9.471 7.318.344 9.142 9.944 9.142 9.944.156-6.845 9.422-10.045 9.422-10.045-6.941-.416-9.351-9.37-9.351-9.37z" fill="#d7e057"/><path d="m35.594 24.414c-5.766-.345-7.972-8.186-7.993-8.265-.19-.702-.856-1.169-1.582-1.102-.726.065-1.299.643-1.36 1.368-.579 6.871-7.647 8.066-7.942 8.113-.763.116-1.313.791-1.273 1.561.04.771.657 1.385 1.427 1.421 6.035.284 7.724 8.645 7.739 8.727.135.713.759 1.22 1.472 1.22.041 0 .083-.002.125-.005.765-.063 1.358-.693 1.376-1.461.13-5.709 8.332-8.634 8.412-8.662.677-.234 1.094-.913.996-1.622s-.682-1.251-1.397-1.293zm-9.584 6.795c-.924-1.886-2.34-3.947-4.447-5.279 1.856-1.041 3.697-2.63 4.871-4.917 1.057 1.874 2.654 3.954 4.941 5.224-1.851 1.1-3.989 2.74-5.365 4.972z" fill="#3a312a"/><path d="m236.173 81.908-2.414-1.125c-2.52-1.174-5.365.821-5.121 3.59l.233 2.653c.244 2.769 3.393 4.236 5.67 2.64l2.181-1.529c2.275-1.594 1.971-5.055-.549-6.229z" fill="#f16c7a"/><path d="m239.739 84.734c-.161-1.841-1.258-3.405-2.934-4.186l-2.414-1.124c-1.674-.781-3.579-.613-5.091.447-1.514 1.061-2.32 2.792-2.158 4.633l.233 2.653c.162 1.841 1.259 3.405 2.935 4.186.697.325 1.435.485 2.167.485 1.025 0 2.041-.315 2.924-.934l2.181-1.528c1.513-1.059 2.319-2.792 2.157-4.632zm-3.88 2.176-2.181 1.528c-.625.438-1.413.506-2.102.186-.691-.322-1.145-.969-1.212-1.729l-.233-2.652c-.066-.761.267-1.476.892-1.913s1.41-.506 2.104-.186l2.413 1.124c.692.322 1.146.969 1.212 1.729.065.76-.268 1.476-.893 1.913z" fill="#3a312a"/><ellipse cx="198.49" cy="198.527" fill="#d7e057" rx="40.931" ry="40.931" transform="matrix(.987 -.16 .16 .987 -29.238 34.358)"/><path d="m198.49 156.097c-23.396 0-42.431 19.034-42.431 42.431s19.034 42.431 42.431 42.431c23.396 0 42.431-19.034 42.431-42.431s-19.034-42.431-42.431-42.431zm0 81.861c-21.742 0-39.431-17.688-39.431-39.431s17.688-39.431 39.431-39.431 39.431 17.688 39.431 39.431-17.689 39.431-39.431 39.431z" fill="#3a312a"/><path d="m224.877 180.608c-1.85-2.05-5.012-2.214-7.063-.363l-28.124 25.371-9.793-13.828c-1.597-2.254-4.718-2.786-6.97-1.191-2.254 1.596-2.787 4.717-1.19 6.97l13.045 18.419c.825 1.166 2.11 1.923 3.529 2.08.185.02.368.03.551.03 1.23 0 2.426-.455 3.35-1.288l32.302-29.14c2.049-1.848 2.212-5.01.363-7.06z" fill="#87796f"/><path d="m225.991 179.604c-1.163-1.289-2.759-2.049-4.493-2.138-1.736-.085-3.399.503-4.688 1.666l-26.87 24.24-8.818-12.451c-1.003-1.417-2.499-2.358-4.21-2.65-1.71-.293-3.434.1-4.851 1.103-1.417 1.004-2.358 2.499-2.65 4.211-.293 1.711.1 3.435 1.104 4.851l13.044 18.419c1.072 1.515 2.744 2.5 4.596 2.705.238.025.474.039.709.039 1.61 0 3.157-.595 4.354-1.674l32.302-29.141c1.289-1.162 2.048-2.758 2.137-4.492.088-1.734-.504-3.399-1.666-4.688zm-2.482 6.952-32.302 29.14c-.74.669-1.778.985-2.73.881-.993-.109-1.894-.641-2.471-1.456l-13.045-18.42c-.54-.763-.751-1.69-.594-2.611.157-.922.664-1.727 1.428-2.268.598-.423 1.297-.645 2.015-.645.198 0 .397.018.597.051.921.157 1.726.665 2.267 1.428l9.794 13.828c.247.35.633.576 1.059.624.422.044.852-.091 1.17-.377l28.124-25.372c.693-.626 1.584-.94 2.524-.896.934.048 1.793.457 2.42 1.151.626.693.944 1.59.896 2.523-.05.934-.458 1.793-1.152 2.419z" fill="#3a312a"/><path d="m198.495 159.095c-1.16 0-2.31.05-3.45.15 10.1 2.97 18.58 9.73 23.79 18.63.84-.32 1.74-.46 2.66-.41 1.74.09 3.33.85 4.5 2.14 2.4 2.66 2.18 6.78-.48 9.18l-1.88 1.7c.52 2.6.79 5.29.79 8.04 0 18.6-12.4 34.29-29.38 39.28 1.14.1 2.29.15 3.45.15 21.74 0 39.43-17.69 39.43-39.43s-17.691-39.43-39.43-39.43z" fill="#b9c239"/></svg>