<?xml version="1.0" encoding="iso-8859-1"?>
<!-- Generator: Adobe Illustrator 19.0.0, SVG Export Plug-In . SVG Version: 6.00 Build 0)  -->
<svg version="1.1" id="Capa_1" xmlns="http://www.w3.org/2000/svg" xmlns:xlink="http://www.w3.org/1999/xlink" x="0px" y="0px"
	 viewBox="0 0 512 512" style="enable-background:new 0 0 512 512;" xml:space="preserve">
<rect id="SVGCleanerId_0" x="145.067" y="315.733" style="fill:#4398D1;" width="221.867" height="187.733"/>
<g>
	<rect id="SVGCleanerId_0_1_" x="145.067" y="315.733" style="fill:#4398D1;" width="221.867" height="187.733"/>
</g>
<g>
	<rect x="8.533" y="315.733" style="fill:#4398D1;" width="136.533" height="187.733"/>
	<rect x="366.933" y="315.733" style="fill:#4398D1;" width="136.533" height="187.733"/>
</g>
<rect x="179.2" y="384" style="fill:#87CED9;" width="153.6" height="85.333"/>
<g>
	<rect x="264.533" y="341.333" style="fill:#1C4878;" width="17.067" height="17.067"/>
	<rect x="230.4" y="341.333" style="fill:#1C4878;" width="17.067" height="17.067"/>
	<rect x="196.267" y="341.333" style="fill:#1C4878;" width="17.067" height="17.067"/>
	<rect x="298.667" y="341.333" style="fill:#1C4878;" width="17.067" height="17.067"/>
	<rect x="8.533" y="375.467" style="fill:#1C4878;" width="136.533" height="17.067"/>
</g>
<g>
	<rect x="59.733" y="341.333" style="fill:#DEDEDE;" width="34.133" height="17.067"/>
	<rect x="59.733" y="409.6" style="fill:#DEDEDE;" width="34.133" height="17.067"/>
</g>
<g>
	<rect x="366.933" y="375.467" style="fill:#1C4878;" width="136.533" height="17.067"/>
	<rect x="426.667" y="384" style="fill:#1C4878;" width="17.067" height="119.467"/>
</g>
<g>
	<rect x="418.133" y="341.333" style="fill:#DEDEDE;" width="34.133" height="17.067"/>
	<rect x="392.533" y="426.667" style="fill:#DEDEDE;" width="17.067" height="25.6"/>
	<rect x="460.8" y="426.667" style="fill:#DEDEDE;" width="17.067" height="25.6"/>
</g>
<polygon style="fill:#E5E5E5;" points="324.267,110.933 324.267,8.533 187.733,8.533 187.733,110.933 153.6,145.067 358.4,145.067 
	"/>
<g>
	<path style="fill:#87CED9;" d="M494.933,315.733h-17.067v-93.867c0-9.429-7.637-17.067-17.067-17.067s-17.067,7.637-17.067,17.067
		v8.533h-17.067v-8.533c0-18.85,15.283-34.133,34.133-34.133s34.133,15.283,34.133,34.133V315.733z"/>
	<rect x="460.8" y="273.067" style="fill:#87CED9;" width="25.6" height="17.067"/>
</g>
<rect x="162.133" y="264.533" style="fill:#DE4C3C;" width="85.333" height="51.2"/>
<g>
	<rect x="136.533" y="273.067" style="fill:#1C4878;" width="25.6" height="17.067"/>
	<rect x="247.467" y="273.067" style="fill:#1C4878;" width="25.6" height="17.067"/>
</g>
<path style="fill:#C94536;" d="M162.133,311.552v4.181h85.333v-50.347C224.853,293.205,187.221,305.92,162.133,311.552z"/>
<rect x="8.533" y="8.533" style="fill:#4398D1;" width="136.533" height="102.4"/>
<rect x="102.4" y="51.2" style="fill:#E5E5E5;" width="17.067" height="34.133"/>
<rect x="366.933" y="8.533" style="fill:#4398D1;" width="136.533" height="102.4"/>
<rect x="392.533" y="51.2" style="fill:#E5E5E5;" width="17.067" height="34.133"/>
<rect y="170.667" style="fill:#DEDEDE;" width="153.6" height="17.067"/>
<path style="fill:#4398D1;" d="M34.133,232.789V153.6H17.067v79.189c-5.248,3.029-8.499,8.619-8.533,14.677
	c0,9.429,7.637,17.067,17.067,17.067s17.067-7.637,17.067-17.067C42.633,241.408,39.381,235.819,34.133,232.789z"/>
<path style="fill:#87CED9;" d="M68.267,232.789V153.6H51.2v79.189c-5.248,3.029-8.499,8.619-8.533,14.677
	c0,9.429,7.637,17.067,17.067,17.067S76.8,256.896,76.8,247.467C76.766,241.408,73.515,235.819,68.267,232.789z"/>
<path style="fill:#4398D1;" d="M102.4,232.789V153.6H85.333v79.189c-5.248,3.029-8.499,8.619-8.533,14.677
	c0,9.429,7.637,17.067,17.067,17.067s17.067-7.637,17.067-17.067C110.899,241.408,107.648,235.819,102.4,232.789z"/>
<g>
	<rect x="136.533" y="315.733" style="fill:#1C4878;" width="17.067" height="187.733"/>
	<rect x="358.4" y="315.733" style="fill:#1C4878;" width="17.067" height="187.733"/>
</g>
<polygon style="fill:#6CBAC7;" points="179.2,440.576 179.2,469.333 332.8,469.333 332.8,384 264.533,384 "/>
<polygon style="fill:#DEDEDE;" points="324.267,110.933 324.267,33.024 190.72,145.067 358.4,145.067 "/>
<path d="M503.467,307.2h-8.533v-85.333c0-18.85-15.283-34.133-34.133-34.133s-34.133,15.283-34.133,34.133v8.533h17.067v-8.533
	c0-9.429,7.637-17.067,17.067-17.067s17.067,7.637,17.067,17.067v51.2H460.8v17.067h17.067V307.2H256v-17.067h17.067v-17.067H256
	v-8.533c0-4.71-3.823-8.533-8.533-8.533h-85.333c-4.71,0-8.533,3.823-8.533,8.533v8.533h-17.067v17.067H153.6V307.2H8.533
	c-4.71,0-8.533,3.823-8.533,8.533v187.733C0,508.177,3.823,512,8.533,512h494.933c4.71,0,8.533-3.823,8.533-8.533V315.733
	C512,311.023,508.177,307.2,503.467,307.2z M136.533,494.933H17.067v-102.4h119.467V494.933z M136.533,375.467H17.067v-51.2h119.467
	V375.467z M170.667,273.067h68.267V307.2h-68.267V273.067z M358.4,494.933H153.6V324.267h204.8V494.933z M426.667,494.933h-51.2
	v-102.4h51.2V494.933z M494.933,494.933h-51.2v-102.4h51.2V494.933z M494.933,375.467H375.467v-51.2h119.467V375.467z"/>
<path d="M170.667,384v85.333c0,4.71,3.823,8.533,8.533,8.533h153.6c4.71,0,8.533-3.823,8.533-8.533V384
	c0-4.71-3.823-8.533-8.533-8.533H179.2C174.49,375.467,170.667,379.29,170.667,384z M187.733,392.533h136.533V460.8H187.733V392.533
	z"/>
<rect x="264.533" y="341.333" width="17.067" height="17.067"/>
<rect x="230.4" y="341.333" width="17.067" height="17.067"/>
<rect x="196.267" y="341.333" width="17.067" height="17.067"/>
<rect x="298.667" y="341.333" width="17.067" height="17.067"/>
<rect x="59.733" y="341.333" width="34.133" height="17.067"/>
<rect x="59.733" y="409.6" width="34.133" height="17.067"/>
<rect x="418.133" y="341.333" width="34.133" height="17.067"/>
<rect x="392.533" y="426.667" width="17.067" height="25.6"/>
<rect x="460.8" y="426.667" width="17.067" height="25.6"/>
<path d="M324.267,0H187.733c-4.71,0-8.533,3.823-8.533,8.533v98.901l-31.659,31.573c-2.423,2.458-3.132,6.127-1.792,9.301
	c1.306,3.183,4.403,5.274,7.851,5.291h204.8c3.447-0.017,6.545-2.108,7.851-5.291c1.34-3.174,0.631-6.844-1.792-9.301L332.8,107.435
	V8.533C332.8,3.823,328.977,0,324.267,0z M337.835,136.533H174.165l19.627-19.541c1.596-1.613,2.492-3.789,2.475-6.059V17.067
	h119.467v93.867c-0.017,2.27,0.879,4.446,2.475,6.059L337.835,136.533z"/>
<path d="M8.533,119.467h136.533c4.71,0,8.533-3.823,8.533-8.533V8.533c0-4.71-3.823-8.533-8.533-8.533H8.533
	C3.823,0,0,3.823,0,8.533v102.4C0,115.644,3.823,119.467,8.533,119.467z M17.067,17.067h119.467V102.4H17.067V17.067z"/>
<rect x="102.4" y="51.2" width="17.067" height="34.133"/>
<path d="M503.467,0H366.933c-4.71,0-8.533,3.823-8.533,8.533v102.4c0,4.71,3.823,8.533,8.533,8.533h136.533
	c4.71,0,8.533-3.823,8.533-8.533V8.533C512,3.823,508.177,0,503.467,0z M494.933,102.4H375.467V17.067h119.467V102.4z"/>
<rect x="392.533" y="51.2" width="17.067" height="34.133"/>
<path d="M0,247.467c0,14.14,11.46,25.6,25.6,25.6c6.315-0.034,12.39-2.406,17.067-6.656c9.719,8.695,24.414,8.695,34.133,0
	c4.676,4.25,10.752,6.622,17.067,6.656c14.14-0.111,25.506-11.657,25.404-25.796c-0.085-10.701-6.81-20.215-16.87-23.868v-35.669
	h51.2v-17.067h-51.2V153.6H85.333v17.067H68.267V153.6H51.2v17.067H34.133V153.6H17.067v17.067H0v17.067h17.067v35.669
	C6.861,227.012,0.034,236.646,0,247.467z M93.867,238.933c4.71,0,8.533,3.823,8.533,8.533S98.577,256,93.867,256
	c-4.71,0-8.533-3.823-8.533-8.533S89.156,238.933,93.867,238.933z M68.267,187.733h17.067v35.669
	c-3.14,1.161-6.033,2.901-8.533,5.12c-2.5-2.219-5.393-3.959-8.533-5.12V187.733z M59.733,238.933c4.71,0,8.533,3.823,8.533,8.533
	S64.444,256,59.733,256s-8.533-3.823-8.533-8.533S55.023,238.933,59.733,238.933z M34.133,187.733H51.2v35.669
	c-3.14,1.161-6.033,2.901-8.533,5.12c-2.5-2.219-5.393-3.959-8.533-5.12V187.733z M25.6,238.933c4.71,0,8.533,3.823,8.533,8.533
	S30.31,256,25.6,256s-8.533-3.823-8.533-8.533S20.89,238.933,25.6,238.933z"/>
<g>
</g>
<g>
</g>
<g>
</g>
<g>
</g>
<g>
</g>
<g>
</g>
<g>
</g>
<g>
</g>
<g>
</g>
<g>
</g>
<g>
</g>
<g>
</g>
<g>
</g>
<g>
</g>
<g>
</g>
</svg>
